<mxfile host="app.diagrams.net" agent="Mozilla/5.0 (Macintosh; Intel Mac OS X 10.15; rv:133.0) Gecko/20100101 Firefox/133.0" version="24.8.4">
  <diagram name="Page-1" id="6O1cr4mBH4c5QLP21h-N">
    <mxGraphModel dx="1647" dy="933" grid="1" gridSize="10" guides="1" tooltips="1" connect="1" arrows="1" fold="1" page="1" pageScale="1" pageWidth="1169" pageHeight="827" math="0" shadow="0">
      <root>
        <mxCell id="0" />
        <mxCell id="1" parent="0" />
        <mxCell id="Oc67pFwe3cu9w0bqrP2Q-1" value="&lt;div style=&quot;font-size: 16px;&quot;&gt;&lt;font style=&quot;font-size: 16px;&quot;&gt;HOST&lt;/font&gt;&lt;/div&gt;&lt;div style=&quot;font-size: 16px;&quot;&gt;&lt;font style=&quot;font-size: 16px;&quot;&gt;&lt;br&gt;&lt;/font&gt;&lt;/div&gt;&lt;div style=&quot;font-size: 16px;&quot;&gt;&lt;font style=&quot;font-size: 16px;&quot;&gt;&lt;br&gt;&lt;/font&gt;&lt;/div&gt;&lt;div style=&quot;font-size: 16px;&quot;&gt;&lt;font style=&quot;font-size: 16px;&quot;&gt;&lt;br&gt;&lt;/font&gt;&lt;/div&gt;&lt;div style=&quot;font-size: 16px;&quot;&gt;&lt;font style=&quot;font-size: 16px;&quot;&gt;&lt;br&gt;&lt;/font&gt;&lt;/div&gt;&lt;div style=&quot;font-size: 16px;&quot;&gt;&lt;font style=&quot;font-size: 16px;&quot;&gt;&lt;br&gt;&lt;/font&gt;&lt;/div&gt;&lt;div style=&quot;font-size: 16px;&quot;&gt;&lt;font style=&quot;font-size: 16px;&quot;&gt;&lt;br&gt;&lt;/font&gt;&lt;/div&gt;" style="whiteSpace=wrap;html=1;fillColor=#D5E8D4;verticalAlign=top;" parent="1" vertex="1">
          <mxGeometry x="40" y="80" width="520" height="160" as="geometry" />
        </mxCell>
        <mxCell id="Oc67pFwe3cu9w0bqrP2Q-2" value="TOPOLOGY" style="whiteSpace=wrap;html=1;aspect=fixed;" parent="1" vertex="1">
          <mxGeometry x="60" y="150" width="80" height="80" as="geometry" />
        </mxCell>
        <mxCell id="Oc67pFwe3cu9w0bqrP2Q-4" value="CIP" style="whiteSpace=wrap;html=1;aspect=fixed;" parent="1" vertex="1">
          <mxGeometry x="160" y="150" width="80" height="80" as="geometry" />
        </mxCell>
        <mxCell id="Oc67pFwe3cu9w0bqrP2Q-5" value="RFP" style="whiteSpace=wrap;html=1;aspect=fixed;" parent="1" vertex="1">
          <mxGeometry x="260" y="150" width="80" height="80" as="geometry" />
        </mxCell>
        <mxCell id="Oc67pFwe3cu9w0bqrP2Q-6" value="CRD" style="whiteSpace=wrap;html=1;aspect=fixed;" parent="1" vertex="1">
          <mxGeometry x="360" y="150" width="80" height="80" as="geometry" />
        </mxCell>
        <mxCell id="Oc67pFwe3cu9w0bqrP2Q-7" value="SETTINGS" style="whiteSpace=wrap;html=1;aspect=fixed;" parent="1" vertex="1">
          <mxGeometry x="460" y="150" width="80" height="80" as="geometry" />
        </mxCell>
        <mxCell id="Oc67pFwe3cu9w0bqrP2Q-8" value="&lt;div style=&quot;font-size: 16px;&quot;&gt;&lt;font style=&quot;font-size: 16px;&quot;&gt;HOST&lt;/font&gt;&lt;/div&gt;&lt;div style=&quot;font-size: 16px;&quot;&gt;&lt;font style=&quot;font-size: 16px;&quot;&gt;&lt;br&gt;&lt;/font&gt;&lt;/div&gt;&lt;div style=&quot;font-size: 16px;&quot;&gt;&lt;font style=&quot;font-size: 16px;&quot;&gt;&lt;br&gt;&lt;/font&gt;&lt;/div&gt;&lt;div style=&quot;font-size: 16px;&quot;&gt;&lt;font style=&quot;font-size: 16px;&quot;&gt;&lt;br&gt;&lt;/font&gt;&lt;/div&gt;&lt;div style=&quot;font-size: 16px;&quot;&gt;&lt;font style=&quot;font-size: 16px;&quot;&gt;&lt;br&gt;&lt;/font&gt;&lt;/div&gt;&lt;div style=&quot;font-size: 16px;&quot;&gt;&lt;font style=&quot;font-size: 16px;&quot;&gt;&lt;br&gt;&lt;/font&gt;&lt;/div&gt;&lt;div style=&quot;font-size: 16px;&quot;&gt;&lt;font style=&quot;font-size: 16px;&quot;&gt;&lt;br&gt;&lt;/font&gt;&lt;/div&gt;" style="whiteSpace=wrap;html=1;fillColor=#D4E1F5;verticalAlign=top;" parent="1" vertex="1">
          <mxGeometry x="40" y="480" width="220" height="160" as="geometry" />
        </mxCell>
        <mxCell id="Oc67pFwe3cu9w0bqrP2Q-9" value="TOPOLOGY" style="whiteSpace=wrap;html=1;aspect=fixed;" parent="1" vertex="1">
          <mxGeometry x="60" y="550" width="80" height="80" as="geometry" />
        </mxCell>
        <mxCell id="Oc67pFwe3cu9w0bqrP2Q-10" value="CIP" style="whiteSpace=wrap;html=1;aspect=fixed;" parent="1" vertex="1">
          <mxGeometry x="160" y="550" width="80" height="80" as="geometry" />
        </mxCell>
        <mxCell id="Oc67pFwe3cu9w0bqrP2Q-14" value="&lt;div style=&quot;font-size: 16px;&quot;&gt;&lt;font style=&quot;font-size: 16px;&quot;&gt;HOST&lt;/font&gt;&lt;/div&gt;&lt;div style=&quot;font-size: 16px;&quot;&gt;&lt;font style=&quot;font-size: 16px;&quot;&gt;&lt;br&gt;&lt;/font&gt;&lt;/div&gt;&lt;div style=&quot;font-size: 16px;&quot;&gt;&lt;font style=&quot;font-size: 16px;&quot;&gt;&lt;br&gt;&lt;/font&gt;&lt;/div&gt;&lt;div style=&quot;font-size: 16px;&quot;&gt;&lt;font style=&quot;font-size: 16px;&quot;&gt;&lt;br&gt;&lt;/font&gt;&lt;/div&gt;&lt;div style=&quot;font-size: 16px;&quot;&gt;&lt;font style=&quot;font-size: 16px;&quot;&gt;&lt;br&gt;&lt;/font&gt;&lt;/div&gt;&lt;div style=&quot;font-size: 16px;&quot;&gt;&lt;font style=&quot;font-size: 16px;&quot;&gt;&lt;br&gt;&lt;/font&gt;&lt;/div&gt;&lt;div style=&quot;font-size: 16px;&quot;&gt;&lt;font style=&quot;font-size: 16px;&quot;&gt;&lt;br&gt;&lt;/font&gt;&lt;/div&gt;" style="whiteSpace=wrap;html=1;fillColor=#FFF2CC;verticalAlign=top;" parent="1" vertex="1">
          <mxGeometry x="300" y="480" width="220" height="160" as="geometry" />
        </mxCell>
        <mxCell id="Oc67pFwe3cu9w0bqrP2Q-15" value="TOPOLOGY" style="whiteSpace=wrap;html=1;aspect=fixed;" parent="1" vertex="1">
          <mxGeometry x="320" y="550" width="80" height="80" as="geometry" />
        </mxCell>
        <mxCell id="Oc67pFwe3cu9w0bqrP2Q-17" value="RFP" style="whiteSpace=wrap;html=1;aspect=fixed;" parent="1" vertex="1">
          <mxGeometry x="420" y="550" width="80" height="80" as="geometry" />
        </mxCell>
        <mxCell id="Oc67pFwe3cu9w0bqrP2Q-20" value="&lt;div style=&quot;font-size: 16px;&quot;&gt;&lt;font style=&quot;font-size: 16px;&quot;&gt;HOST&lt;/font&gt;&lt;/div&gt;&lt;div style=&quot;font-size: 16px;&quot;&gt;&lt;font style=&quot;font-size: 16px;&quot;&gt;&lt;br&gt;&lt;/font&gt;&lt;/div&gt;&lt;div style=&quot;font-size: 16px;&quot;&gt;&lt;font style=&quot;font-size: 16px;&quot;&gt;&lt;br&gt;&lt;/font&gt;&lt;/div&gt;&lt;div style=&quot;font-size: 16px;&quot;&gt;&lt;font style=&quot;font-size: 16px;&quot;&gt;&lt;br&gt;&lt;/font&gt;&lt;/div&gt;&lt;div style=&quot;font-size: 16px;&quot;&gt;&lt;font style=&quot;font-size: 16px;&quot;&gt;&lt;br&gt;&lt;/font&gt;&lt;/div&gt;&lt;div style=&quot;font-size: 16px;&quot;&gt;&lt;font style=&quot;font-size: 16px;&quot;&gt;&lt;br&gt;&lt;/font&gt;&lt;/div&gt;&lt;div style=&quot;font-size: 16px;&quot;&gt;&lt;font style=&quot;font-size: 16px;&quot;&gt;&lt;br&gt;&lt;/font&gt;&lt;/div&gt;" style="whiteSpace=wrap;html=1;fillColor=#F8CECC;verticalAlign=top;" parent="1" vertex="1">
          <mxGeometry x="600" y="80" width="120" height="160" as="geometry" />
        </mxCell>
        <mxCell id="Oc67pFwe3cu9w0bqrP2Q-23" value="&lt;div&gt;CRD&lt;/div&gt;" style="whiteSpace=wrap;html=1;aspect=fixed;" parent="1" vertex="1">
          <mxGeometry x="620" y="150" width="80" height="80" as="geometry" />
        </mxCell>
        <mxCell id="Oc67pFwe3cu9w0bqrP2Q-29" value="RIS" style="text;html=1;align=center;verticalAlign=middle;whiteSpace=wrap;rounded=0;fontSize=14;" parent="1" vertex="1">
          <mxGeometry x="40" y="50" width="520" height="30" as="geometry" />
        </mxCell>
        <mxCell id="Oc67pFwe3cu9w0bqrP2Q-30" value="CRD" style="text;html=1;align=center;verticalAlign=middle;whiteSpace=wrap;rounded=0;fontSize=14;" parent="1" vertex="1">
          <mxGeometry x="600" y="50" width="120" height="30" as="geometry" />
        </mxCell>
        <mxCell id="Oc67pFwe3cu9w0bqrP2Q-31" value="&lt;div&gt;PUBLIC CIP&lt;/div&gt;" style="text;html=1;align=center;verticalAlign=middle;whiteSpace=wrap;rounded=0;fontSize=14;" parent="1" vertex="1">
          <mxGeometry x="40" y="450" width="220" height="30" as="geometry" />
        </mxCell>
        <mxCell id="Oc67pFwe3cu9w0bqrP2Q-32" value="&lt;div&gt;PUBLIC RFP&lt;br&gt;&lt;/div&gt;" style="text;html=1;align=center;verticalAlign=middle;whiteSpace=wrap;rounded=0;fontSize=14;" parent="1" vertex="1">
          <mxGeometry x="300" y="450" width="220" height="30" as="geometry" />
        </mxCell>
        <mxCell id="jQh7xlE1yt_vZjkx9GbT-1" value="RIS: Micro Front-end Architecture" style="text;html=1;align=left;verticalAlign=middle;whiteSpace=wrap;rounded=0;fontSize=20;" vertex="1" parent="1">
          <mxGeometry x="40" y="10" width="680" height="30" as="geometry" />
        </mxCell>
        <mxCell id="jQh7xlE1yt_vZjkx9GbT-2" value="" style="whiteSpace=wrap;html=1;fillColor=#E5CCFF;verticalAlign=top;" vertex="1" parent="1">
          <mxGeometry x="800" y="80" width="220" height="500" as="geometry" />
        </mxCell>
        <mxCell id="jQh7xlE1yt_vZjkx9GbT-3" value="" style="endArrow=none;html=1;rounded=0;" edge="1" parent="1">
          <mxGeometry width="50" height="50" relative="1" as="geometry">
            <mxPoint x="760" y="800" as="sourcePoint" />
            <mxPoint x="760" y="40" as="targetPoint" />
          </mxGeometry>
        </mxCell>
        <mxCell id="jQh7xlE1yt_vZjkx9GbT-27" style="edgeStyle=orthogonalEdgeStyle;rounded=0;orthogonalLoop=1;jettySize=auto;html=1;" edge="1" parent="1" source="jQh7xlE1yt_vZjkx9GbT-4" target="jQh7xlE1yt_vZjkx9GbT-26">
          <mxGeometry relative="1" as="geometry" />
        </mxCell>
        <mxCell id="jQh7xlE1yt_vZjkx9GbT-4" value="&lt;div&gt;AZURE AUTHENTICATION&lt;/div&gt;&lt;div&gt;(IF NEEDED)&lt;br&gt;&lt;/div&gt;" style="whiteSpace=wrap;html=1;" vertex="1" parent="1">
          <mxGeometry x="830" y="200" width="200" height="80" as="geometry" />
        </mxCell>
        <mxCell id="jQh7xlE1yt_vZjkx9GbT-12" style="edgeStyle=orthogonalEdgeStyle;rounded=0;orthogonalLoop=1;jettySize=auto;html=1;" edge="1" parent="1" source="jQh7xlE1yt_vZjkx9GbT-5" target="jQh7xlE1yt_vZjkx9GbT-6">
          <mxGeometry relative="1" as="geometry" />
        </mxCell>
        <mxCell id="jQh7xlE1yt_vZjkx9GbT-5" value="PRELOADS DATA &lt;br&gt;(Map Legend, Permissions, etc.)" style="whiteSpace=wrap;html=1;" vertex="1" parent="1">
          <mxGeometry x="830" y="380" width="200" height="80" as="geometry" />
        </mxCell>
        <mxCell id="jQh7xlE1yt_vZjkx9GbT-6" value="DYNAMICALLY CONSTRUCTS APPLICATIONS AND NAVIGATION" style="whiteSpace=wrap;html=1;" vertex="1" parent="1">
          <mxGeometry x="830" y="480" width="200" height="80" as="geometry" />
        </mxCell>
        <mxCell id="jQh7xlE1yt_vZjkx9GbT-7" value="HOST" style="text;html=1;align=center;verticalAlign=middle;whiteSpace=wrap;rounded=0;fontSize=14;" vertex="1" parent="1">
          <mxGeometry x="800" y="50" width="220" height="30" as="geometry" />
        </mxCell>
        <mxCell id="jQh7xlE1yt_vZjkx9GbT-9" style="edgeStyle=orthogonalEdgeStyle;rounded=0;orthogonalLoop=1;jettySize=auto;html=1;exitX=0.5;exitY=1;exitDx=0;exitDy=0;entryX=0.5;entryY=0;entryDx=0;entryDy=0;" edge="1" parent="1" source="jQh7xlE1yt_vZjkx9GbT-8" target="jQh7xlE1yt_vZjkx9GbT-4">
          <mxGeometry relative="1" as="geometry" />
        </mxCell>
        <mxCell id="jQh7xlE1yt_vZjkx9GbT-8" value="EVALUATES APPLICATION TYPE" style="whiteSpace=wrap;html=1;" vertex="1" parent="1">
          <mxGeometry x="830" y="100" width="200" height="80" as="geometry" />
        </mxCell>
        <mxCell id="jQh7xlE1yt_vZjkx9GbT-14" style="edgeStyle=orthogonalEdgeStyle;rounded=0;orthogonalLoop=1;jettySize=auto;html=1;entryX=0.5;entryY=1;entryDx=0;entryDy=0;" edge="1" parent="1" source="jQh7xlE1yt_vZjkx9GbT-13" target="Oc67pFwe3cu9w0bqrP2Q-20">
          <mxGeometry relative="1" as="geometry" />
        </mxCell>
        <mxCell id="jQh7xlE1yt_vZjkx9GbT-15" style="edgeStyle=orthogonalEdgeStyle;rounded=0;orthogonalLoop=1;jettySize=auto;html=1;entryX=0.5;entryY=1;entryDx=0;entryDy=0;" edge="1" parent="1" source="jQh7xlE1yt_vZjkx9GbT-13" target="Oc67pFwe3cu9w0bqrP2Q-1">
          <mxGeometry relative="1" as="geometry" />
        </mxCell>
        <mxCell id="jQh7xlE1yt_vZjkx9GbT-13" value="LANDING PAGE" style="whiteSpace=wrap;html=1;aspect=fixed;fillColor=#cdeb8b;strokeColor=#36393d;" vertex="1" parent="1">
          <mxGeometry x="530" y="300" width="80" height="80" as="geometry" />
        </mxCell>
        <mxCell id="jQh7xlE1yt_vZjkx9GbT-17" style="rounded=0;orthogonalLoop=1;jettySize=auto;html=1;entryX=0;entryY=0.5;entryDx=0;entryDy=0;startArrow=none;startFill=0;endArrow=none;endFill=0;shape=link;" edge="1" parent="1" source="jQh7xlE1yt_vZjkx9GbT-16" target="jQh7xlE1yt_vZjkx9GbT-13">
          <mxGeometry relative="1" as="geometry" />
        </mxCell>
        <mxCell id="jQh7xlE1yt_vZjkx9GbT-16" value="Micro Front-End architecture allows us to easily plug-in another micro-app: Landing Page and navigate to it. Only when necessary." style="text;html=1;align=center;verticalAlign=middle;whiteSpace=wrap;rounded=0;strokeColor=default;fontSize=12;" vertex="1" parent="1">
          <mxGeometry x="290" y="300" width="200" height="80" as="geometry" />
        </mxCell>
        <mxCell id="jQh7xlE1yt_vZjkx9GbT-22" style="edgeStyle=orthogonalEdgeStyle;rounded=0;orthogonalLoop=1;jettySize=auto;html=1;entryX=0.5;entryY=1;entryDx=0;entryDy=0;endArrow=none;endFill=0;shape=link;" edge="1" parent="1" source="jQh7xlE1yt_vZjkx9GbT-18" target="jQh7xlE1yt_vZjkx9GbT-2">
          <mxGeometry relative="1" as="geometry" />
        </mxCell>
        <mxCell id="jQh7xlE1yt_vZjkx9GbT-18" value="&lt;div&gt;Host Application is not visible to users, but it provides shared functionality and the wire-frame for all underlying applications.&lt;/div&gt;&lt;div&gt;&lt;br&gt;&lt;/div&gt;&lt;div&gt;It is designed to be easily extensible with the new functionality; e.g. plug-in Landing Page for authenticated applications.&lt;br&gt;&lt;/div&gt;&lt;div&gt;&lt;br&gt;&lt;/div&gt;&lt;div&gt;&lt;br&gt;&lt;/div&gt;" style="text;html=1;align=left;verticalAlign=top;whiteSpace=wrap;rounded=0;strokeColor=default;fontSize=12;" vertex="1" parent="1">
          <mxGeometry x="800" y="620" width="220" height="140" as="geometry" />
        </mxCell>
        <mxCell id="jQh7xlE1yt_vZjkx9GbT-24" style="edgeStyle=orthogonalEdgeStyle;rounded=0;orthogonalLoop=1;jettySize=auto;html=1;entryX=0.5;entryY=1;entryDx=0;entryDy=0;shape=link;" edge="1" parent="1" source="jQh7xlE1yt_vZjkx9GbT-23" target="Oc67pFwe3cu9w0bqrP2Q-14">
          <mxGeometry relative="1" as="geometry" />
        </mxCell>
        <mxCell id="jQh7xlE1yt_vZjkx9GbT-23" value="Public applications will never be able to navigate to the Landing Page." style="text;html=1;align=left;verticalAlign=middle;whiteSpace=wrap;rounded=0;strokeColor=default;fontSize=12;" vertex="1" parent="1">
          <mxGeometry x="180" y="680" width="200" height="80" as="geometry" />
        </mxCell>
        <mxCell id="jQh7xlE1yt_vZjkx9GbT-25" style="edgeStyle=orthogonalEdgeStyle;rounded=0;orthogonalLoop=1;jettySize=auto;html=1;entryX=0.455;entryY=1.019;entryDx=0;entryDy=0;entryPerimeter=0;shape=link;" edge="1" parent="1" source="jQh7xlE1yt_vZjkx9GbT-23" target="Oc67pFwe3cu9w0bqrP2Q-8">
          <mxGeometry relative="1" as="geometry" />
        </mxCell>
        <mxCell id="jQh7xlE1yt_vZjkx9GbT-28" style="edgeStyle=orthogonalEdgeStyle;rounded=0;orthogonalLoop=1;jettySize=auto;html=1;" edge="1" parent="1" source="jQh7xlE1yt_vZjkx9GbT-26" target="jQh7xlE1yt_vZjkx9GbT-5">
          <mxGeometry relative="1" as="geometry" />
        </mxCell>
        <mxCell id="jQh7xlE1yt_vZjkx9GbT-31" style="edgeStyle=orthogonalEdgeStyle;rounded=0;orthogonalLoop=1;jettySize=auto;html=1;" edge="1" parent="1" source="jQh7xlE1yt_vZjkx9GbT-26" target="jQh7xlE1yt_vZjkx9GbT-29">
          <mxGeometry relative="1" as="geometry" />
        </mxCell>
        <mxCell id="jQh7xlE1yt_vZjkx9GbT-26" value="" style="rhombus;whiteSpace=wrap;html=1;" vertex="1" parent="1">
          <mxGeometry x="915" y="315" width="30" height="30" as="geometry" />
        </mxCell>
        <mxCell id="jQh7xlE1yt_vZjkx9GbT-29" value="&lt;div&gt;LANDING PAGE&lt;/div&gt;&lt;div&gt;(Only when required)&lt;br&gt;&lt;/div&gt;" style="whiteSpace=wrap;html=1;fillColor=#cdeb8b;strokeColor=#36393d;" vertex="1" parent="1">
          <mxGeometry x="960" y="300" width="160" height="60" as="geometry" />
        </mxCell>
      </root>
    </mxGraphModel>
  </diagram>
</mxfile>
